<?xml version="1.0" standalone="no"?>
<!DOCTYPE svg PUBLIC "-//W3C//DTD SVG 20010904//EN"
 "http://www.w3.org/TR/2001/REC-SVG-20010904/DTD/svg10.dtd">
<svg version="1.0" xmlns="http://www.w3.org/2000/svg"
 width="200.000000pt" height="200.000000pt" viewBox="0 0 200.000000 200.000000"
 preserveAspectRatio="xMidYMid meet">

<g transform="translate(0.000000,200.000000) scale(0.100000,-0.100000)"
fill="#000000" stroke="none">
<path d="M775 1456 c-102 -48 -134 -113 -135 -269 0 -106 -1 -109 -29 -138
-29 -29 -29 -29 -156 -29 -196 0 -205 -9 -205 -200 0 -122 3 -140 24 -187 41
-88 131 -137 239 -131 l52 3 0 100 c0 99 0 100 -25 103 -81 9 -95 33 -88 148
4 65 9 79 32 102 26 26 30 27 159 30 72 1 142 8 154 14 36 18 53 68 53 156 0
105 7 112 110 112 112 0 124 11 125 121 l0 84 -130 3 c-119 2 -134 0 -180 -22z"/>
<path d="M1412 1378 l3 -103 63 -5 c40 -3 66 -10 72 -20 5 -8 10 -56 10 -106
0 -85 -2 -93 -26 -117 -24 -25 -30 -26 -165 -29 l-141 -3 -29 -33 c-27 -30
-29 -37 -29 -120 0 -129 -3 -132 -145 -132 -137 0 -135 2 -135 -124 l0 -86
141 0 c162 0 203 9 259 58 67 57 83 99 88 234 4 109 6 120 30 143 24 24 29 25
151 25 108 0 131 3 159 20 47 29 54 58 50 206 -3 125 -4 133 -33 180 -19 30
-49 60 -79 79 -45 27 -59 30 -148 33 l-99 4 3 -104z"/>
</g>
</svg>
